<svg width="545" height="453" viewBox="0 0 545 453" fill="none" xmlns="http://www.w3.org/2000/svg">
<g clip-path="url(#clip0_142_133)">
<path d="M358.534 0H200.166C175.535 0 155.567 19.9739 155.567 44.6128V406.618C155.567 431.257 175.535 451.231 200.166 451.231H358.534C383.165 451.231 403.132 431.257 403.132 406.618V44.6128C403.132 19.9739 383.165 0 358.534 0Z" fill="#3D4656"/>
<path d="M398.956 44.6159V406.618C398.943 417.339 394.681 427.617 387.102 435.197C379.524 442.778 369.25 447.042 358.533 447.054H200.167C189.45 447.042 179.176 442.778 171.597 435.197C164.019 427.617 159.757 417.339 159.744 406.618V44.6159C159.757 33.8954 164.019 23.6175 171.597 16.037C179.176 8.45645 189.45 4.19224 200.167 4.17982H220.876V11.3357C220.876 14.5753 222.163 17.6822 224.453 19.9729C226.743 22.2636 229.849 23.5507 233.087 23.5508H325.613C328.851 23.5507 331.957 22.2636 334.247 19.9729C336.537 17.6822 337.824 14.5753 337.824 11.3357V4.17982H358.533C369.25 4.19224 379.524 8.45645 387.102 16.037C394.681 23.6175 398.943 33.8954 398.956 44.6159Z" fill="white"/>
<path d="M154.428 91.5375C153.623 91.5366 152.851 91.2162 152.281 90.6465C151.712 90.0769 151.391 89.3045 151.39 88.4989V82.4218C151.39 81.6159 151.71 80.843 152.28 80.2732C152.85 79.7033 153.622 79.3832 154.428 79.3832C155.234 79.3832 156.006 79.7033 156.576 80.2732C157.146 80.843 157.466 81.6159 157.466 82.4218V88.4989C157.465 89.3045 157.144 90.0769 156.575 90.6465C156.005 91.2162 155.233 91.5366 154.428 91.5375Z" fill="#3D4656"/>
<path d="M154.428 122.699C153.623 122.698 152.851 122.378 152.281 121.808C151.712 121.239 151.391 120.466 151.39 119.661V102.932C151.39 102.126 151.71 101.353 152.28 100.784C152.85 100.214 153.622 99.8936 154.428 99.8936C155.234 99.8936 156.006 100.214 156.576 100.784C157.146 101.353 157.466 102.126 157.466 102.932V119.661C157.465 120.466 157.144 121.239 156.575 121.808C156.005 122.378 155.233 122.698 154.428 122.699Z" fill="#3D4656"/>
<path d="M154.428 147.751C153.623 147.751 152.851 147.43 152.281 146.86C151.712 146.291 151.391 145.518 151.39 144.713V127.984C151.39 127.178 151.71 126.406 152.28 125.836C152.85 125.266 153.622 124.946 154.428 124.946C155.234 124.946 156.006 125.266 156.576 125.836C157.146 126.406 157.466 127.178 157.466 127.984V144.713C157.465 145.518 157.144 146.291 156.575 146.86C156.005 147.43 155.233 147.751 154.428 147.751Z" fill="#3D4656"/>
<path d="M403.512 134.078C402.706 134.077 401.934 133.756 401.365 133.187C400.795 132.617 400.475 131.845 400.474 131.039V90.2207C400.474 89.4149 400.794 88.642 401.364 88.0721C401.933 87.5023 402.706 87.1822 403.512 87.1822C404.317 87.1822 405.09 87.5023 405.66 88.0721C406.229 88.642 406.549 89.4149 406.549 90.2207V131.039C406.548 131.845 406.228 132.617 405.659 133.187C405.089 133.756 404.317 134.077 403.512 134.078Z" fill="#3D4656"/>
<path d="M285.875 13.9363H262.333C261.83 13.9363 261.347 13.7363 260.991 13.3801C260.635 13.0239 260.435 12.5409 260.435 12.0372C260.435 11.5335 260.635 11.0505 260.991 10.6943C261.347 10.3382 261.83 10.1381 262.333 10.1381H285.875C286.378 10.1381 286.861 10.3382 287.217 10.6943C287.573 11.0505 287.773 11.5335 287.773 12.0372C287.773 12.5409 287.573 13.0239 287.217 13.3801C286.861 13.7363 286.378 13.9363 285.875 13.9363Z" fill="white"/>
<path d="M298.025 13.5565C298.864 13.5565 299.544 12.8763 299.544 12.0372C299.544 11.1981 298.864 10.5179 298.025 10.5179C297.186 10.5179 296.506 11.1981 296.506 12.0372C296.506 12.8763 297.186 13.5565 298.025 13.5565Z" fill="white"/>
<path d="M480.513 432.252C481.068 432.273 481.615 432.122 482.081 431.821C482.547 431.519 482.909 431.082 483.118 430.568C483.328 430.053 483.374 429.487 483.251 428.946C483.127 428.405 482.841 427.915 482.43 427.542C482.359 427.271 482.308 427.077 482.237 426.806C482.755 425.453 483.665 424.285 484.85 423.453C486.035 422.62 487.442 422.161 488.89 422.133C490.338 422.106 491.762 422.512 492.978 423.299C494.194 424.086 495.147 425.218 495.716 426.55C498.995 434.03 503.22 441.765 501.234 450.056C514.595 421.017 509.615 385.1 489.228 360.569C483.628 357.553 479.061 352.142 477.826 345.821C480.591 346.729 484.007 344.454 481.907 341.569C480.998 340.467 480.08 339.374 479.171 338.272C489.537 327.016 502.181 344.431 490.798 359.599C494.614 364.292 497.928 369.371 500.688 374.754C500.008 369.017 500.699 363.2 502.705 357.782C504.742 352.732 508.609 348.457 512.009 344.075C516.142 338.736 524.777 341.099 525.404 347.819C521.555 349.125 521.106 354.709 525.53 355.43C524.492 367.952 516.431 379.527 505.23 385.121C509.497 396.746 511.238 409.146 510.337 421.497C512.186 407.055 527.629 403.408 538.392 397.572C539.077 397.124 539.877 396.885 540.695 396.884C541.513 396.882 542.313 397.119 542.999 397.565C543.684 398.012 544.225 398.648 544.556 399.396C544.886 400.145 544.992 400.973 544.86 401.781C543.372 402.402 541.95 403.17 540.615 404.073C539.989 404.502 539.511 405.115 539.247 405.827C538.983 406.538 538.946 407.314 539.14 408.048C539.334 408.782 539.751 409.438 540.332 409.926C540.913 410.414 541.631 410.71 542.388 410.774C537.063 424.325 523.052 433.525 508.573 433.612C507.239 439.673 505.279 445.58 502.724 451.236L481.234 451.441C481.155 451.203 481.083 450.957 481.012 450.718C483.002 450.825 484.998 450.687 486.955 450.307C481.633 444.125 477.533 440.983 480.513 432.252Z" fill="#EFF7F6"/>
<path d="M64.5467 432.252C63.9922 432.273 63.4448 432.122 62.9788 431.821C62.5128 431.519 62.1507 431.082 61.9415 430.568C61.7323 430.053 61.6861 429.487 61.8093 428.946C61.9325 428.405 62.219 427.915 62.63 427.542C62.7009 427.271 62.7517 427.077 62.8225 426.806C62.3049 425.453 61.3951 424.285 60.2097 423.453C59.0244 422.62 57.6175 422.161 56.1695 422.133C54.7214 422.106 53.2982 422.512 52.0821 423.299C50.8661 424.086 49.9127 425.218 49.3442 426.55C46.0653 434.03 41.8403 441.765 43.8259 450.056C30.465 421.017 35.4447 385.1 55.8323 360.569C61.4319 357.553 65.9987 352.142 67.2343 345.821C64.4686 346.729 61.0528 344.454 63.1532 341.569C64.0622 340.467 64.9799 339.374 65.8888 338.272C55.5229 327.016 42.8786 344.431 54.262 359.599C50.4463 364.292 47.1315 369.371 44.3716 374.754C45.0517 369.017 44.3605 363.2 42.3549 357.782C40.318 352.732 36.4507 348.457 33.051 344.075C28.9176 338.736 20.2832 341.099 19.6562 347.819C23.5053 349.125 23.9538 354.709 19.5297 355.43C20.5675 367.952 28.6287 379.527 39.8299 385.121C35.5631 396.746 33.8221 409.146 34.7231 421.497C32.874 407.055 17.4305 403.408 6.66744 397.572C5.98315 397.124 5.18324 396.885 4.36528 396.884C3.54733 396.882 2.7467 397.119 2.06105 397.565C1.37541 398.012 0.834386 398.648 0.503987 399.396C0.173587 400.145 0.0680907 400.973 0.200369 401.781C1.68763 402.402 3.1095 403.17 4.44503 404.073C5.07076 404.502 5.54837 405.115 5.81238 405.827C6.0764 406.538 6.11389 407.314 5.91973 408.048C5.72557 408.782 5.30925 409.438 4.72785 409.926C4.14644 410.414 3.42841 410.71 2.67218 410.774C7.99643 424.325 22.0077 433.525 36.4872 433.612C37.8211 439.673 39.7811 445.58 42.3356 451.236L63.8255 451.441C63.9049 451.203 63.9765 450.957 64.0481 450.718C62.0578 450.825 60.062 450.687 58.1052 450.307C63.4272 444.125 67.5275 440.983 64.5474 432.253L64.5467 432.252Z" fill="#EFF7F6"/>
<path d="M211.828 22.0853H191.324C190.317 22.0853 189.351 21.6851 188.639 20.9728C187.927 20.2605 187.527 19.2944 187.527 18.287C187.527 17.2797 187.927 16.3136 188.639 15.6013C189.351 14.889 190.317 14.4888 191.324 14.4888H211.828C212.835 14.4888 213.801 14.889 214.513 15.6013C215.225 16.3136 215.625 17.2797 215.625 18.287C215.625 19.2944 215.225 20.2605 214.513 20.9728C213.801 21.6851 212.835 22.0853 211.828 22.0853Z" fill="#DEEEEE"/>
<path d="M346.242 21.7054C348.13 21.7054 349.66 20.175 349.66 18.287C349.66 16.3991 348.13 14.8686 346.242 14.8686C344.355 14.8686 342.825 16.3991 342.825 18.287C342.825 20.175 344.355 21.7054 346.242 21.7054Z" fill="#DEEEEE"/>
<path d="M356.874 21.7054C358.761 21.7054 360.291 20.175 360.291 18.287C360.291 16.3991 358.761 14.8686 356.874 14.8686C354.987 14.8686 353.457 16.3991 353.457 18.287C353.457 20.175 354.987 21.7054 356.874 21.7054Z" fill="#DEEEEE"/>
<path d="M367.505 21.7054C369.393 21.7054 370.923 20.175 370.923 18.287C370.923 16.3991 369.393 14.8686 367.505 14.8686C365.618 14.8686 364.088 16.3991 364.088 18.287C364.088 20.175 365.618 21.7054 367.505 21.7054Z" fill="#DEEEEE"/>
<path d="M343.853 75.1725H214.982C212.486 75.176 210.093 76.1695 208.328 77.9353C206.562 79.7011 205.569 82.095 205.566 84.5922V168.389C205.569 170.886 206.562 173.28 208.328 175.046C210.093 176.812 212.486 177.805 214.982 177.809H343.853C346.35 177.806 348.744 176.813 350.509 175.047C352.275 173.281 353.267 170.886 353.269 168.389V84.5922C353.267 82.0946 352.275 79.6999 350.509 77.9339C348.744 76.1678 346.35 75.1747 343.853 75.1725Z" fill="#EFF7F6"/>
<path d="M303.508 110.946C291.862 131.543 279.01 151.435 265.02 170.517H244.811C258.048 154.386 271.295 138.254 284.552 122.123C288.355 117.478 292.482 112.612 298.187 110.725L303.508 110.946Z" fill="#3D4656"/>
<path d="M276.651 107.643C274.543 109.84 272.523 112.125 270.622 114.499C266.435 119.542 262.308 124.629 258.166 129.702C255.586 132.857 253.007 136.013 250.457 139.168C249.647 138.648 248.878 138.066 248.157 137.428C244.084 133.892 241.558 128.9 241.119 123.523C240.681 118.146 242.366 112.811 245.812 108.661C249.259 104.511 254.193 101.877 259.558 101.323C264.923 100.769 270.292 102.339 274.513 105.696C275.274 106.29 275.989 106.941 276.651 107.643Z" fill="#08605F"/>
<path d="M353.269 105.247V108.308L351.903 107.807L332.667 100.773C326.402 98.4861 320.152 95.8729 313.682 94.2245C308.053 92.6137 302.075 92.6903 296.489 94.4448C291.51 96.2876 286.953 99.1167 283.093 102.763C281.384 104.343 279.729 105.961 278.127 107.64C277.603 108.194 277.079 108.749 276.562 109.303C275.013 110.99 273.517 112.714 272.097 114.499C267.913 119.544 263.782 124.633 259.643 129.7C257.061 132.86 254.479 136.013 251.927 139.165C243.407 149.595 234.937 160.045 226.518 170.516C225.384 170.503 224.255 170.36 223.154 170.09C231.742 159.417 240.372 148.772 249.042 138.155C249.239 137.912 249.436 137.669 249.634 137.426C250.652 136.157 251.692 134.881 252.725 133.612C257.046 128.317 261.369 123.028 265.695 117.743C268.839 113.899 271.96 110.04 275.347 106.394C275.552 106.159 275.765 105.931 275.985 105.695C276.312 105.346 276.638 105.004 276.972 104.647C284.331 97.0428 293.512 90.3199 304.508 90.1376C310.978 90.0388 317.228 92.0898 323.243 94.2549C329.72 96.6022 336.175 98.9875 342.645 101.358L353.269 105.247Z" fill="#3D4656"/>
<path d="M356.3 362.821H202.4C199.904 362.819 197.511 361.825 195.745 360.06C193.98 358.294 192.987 355.9 192.984 353.402V332.654C192.987 330.157 193.98 327.763 195.745 325.997C197.511 324.232 199.904 323.238 202.4 323.235H356.3C358.796 323.238 361.189 324.232 362.955 325.997C364.72 327.763 365.713 330.157 365.716 332.654V353.402C365.713 355.9 364.72 358.294 362.955 360.06C361.189 361.825 358.796 362.819 356.3 362.821Z" fill="#EFF7F6"/>
<path d="M356.3 256.471H202.4C199.904 256.468 197.511 255.475 195.745 253.709C193.98 251.943 192.987 249.549 192.984 247.052V226.304C192.987 223.807 193.98 221.412 195.745 219.647C197.511 217.881 199.904 216.888 202.4 216.885H356.3C358.796 216.888 361.189 217.881 362.955 219.647C364.72 221.412 365.713 223.807 365.716 226.304V247.052C365.713 249.549 364.72 251.943 362.955 253.709C361.189 255.475 358.796 256.468 356.3 256.471Z" fill="#EFF7F6"/>
<path d="M356.3 309.646H202.4C199.904 309.643 197.511 308.65 195.745 306.884C193.98 305.118 192.987 302.724 192.984 300.227V279.479C192.987 276.982 193.98 274.588 195.745 272.822C197.511 271.056 199.904 270.063 202.4 270.06H356.3C358.796 270.063 361.189 271.056 362.955 272.822C364.72 274.588 365.713 276.982 365.716 279.479V300.227C365.713 302.724 364.72 305.118 362.955 306.884C361.189 308.65 358.796 309.643 356.3 309.646Z" fill="#EFF7F6"/>
<path d="M298.047 339.477H252.702C252.164 339.477 251.648 339.264 251.268 338.883C250.888 338.503 250.674 337.986 250.674 337.448C250.674 336.91 250.888 336.394 251.268 336.014C251.648 335.633 252.164 335.419 252.702 335.419H298.047C298.585 335.419 299.101 335.633 299.482 336.014C299.862 336.394 300.076 336.91 300.076 337.448C300.076 337.986 299.862 338.503 299.482 338.883C299.101 339.264 298.585 339.477 298.047 339.477Z" fill="white"/>
<path d="M341.66 350.638H252.195C251.657 350.638 251.141 350.424 250.761 350.043C250.38 349.663 250.167 349.147 250.167 348.609C250.167 348.071 250.38 347.554 250.761 347.174C251.141 346.793 251.657 346.579 252.195 346.579H341.66C342.198 346.579 342.714 346.793 343.094 347.174C343.475 347.554 343.688 348.071 343.688 348.609C343.688 349.147 343.475 349.663 343.094 350.043C342.714 350.424 342.198 350.638 341.66 350.638Z" fill="white"/>
<path d="M228.612 356.633C236.123 356.633 242.212 350.542 242.212 343.028C242.212 335.515 236.123 329.424 228.612 329.424C221.101 329.424 215.011 335.515 215.011 343.028C215.011 350.542 221.101 356.633 228.612 356.633Z" fill="white"/>
<path d="M225.581 361.405C224.194 360.757 222.607 360.675 221.16 361.178C219.713 361.682 218.52 362.73 217.834 364.1C217.698 364.381 217.587 364.672 217.5 364.971L197.019 366.195L193.984 376.81L221.858 372.098C223.126 372.363 224.446 372.201 225.612 371.637C226.778 371.072 227.724 370.138 228.304 368.979C228.627 368.316 228.816 367.596 228.862 366.861C228.907 366.125 228.806 365.387 228.567 364.69C228.327 363.993 227.952 363.35 227.464 362.797C226.976 362.245 226.383 361.794 225.721 361.471C225.675 361.449 225.628 361.427 225.581 361.405Z" fill="#FFB6B6"/>
<path d="M180.375 309.051C179.025 308.498 177.573 308.243 176.116 308.302C174.659 308.362 173.232 308.734 171.932 309.395C170.631 310.055 169.489 310.988 168.581 312.129C167.673 313.271 167.022 314.595 166.672 316.011L161.041 338.757L162.1 378.55C162.1 378.55 191.491 384.192 196.424 380.565C201.358 376.939 200.895 374.24 201.358 376.939C201.822 379.638 203.939 380.771 203.969 379.697C203.998 378.623 204.238 378.807 205.467 378.483C206.697 378.16 212.123 376.159 212.123 376.159L212.366 364.814C212.366 364.814 203.395 361.412 201.219 362.427C199.042 363.442 201.682 365.126 199.042 363.442C196.402 361.757 196.114 356.441 195.662 361.232C195.211 366.023 193.89 366.916 191.911 364.785C189.932 362.655 180.762 364.016 180.762 364.016L186.597 319.781C186.891 317.556 186.439 315.297 185.314 313.356C184.188 311.414 182.451 309.901 180.375 309.051Z" fill="#08605F"/>
<path d="M378.301 427.057L378.611 418.678L346.448 413.498L345.993 425.864L378.301 427.057Z" fill="#FFB6B6"/>
<path d="M372.463 429.58L372.158 416.164L377.892 416.375L387.148 403.973C387.605 403.36 388.246 402.91 388.977 402.687C389.708 402.465 390.491 402.482 391.212 402.736C391.933 402.991 392.553 403.469 392.983 404.101C393.413 404.733 393.63 405.486 393.601 406.25L393.013 422.187L387.241 424.724L392.873 426.006L392.651 432.015L372.463 429.58Z" fill="#1E2222"/>
<path d="M197.291 446.272L299.159 434.422C299.159 434.422 343.15 436.964 353.471 430.248L364.355 428.873L364.945 412.881C364.945 412.881 358.289 412.93 354.462 411.146C350.636 409.363 353.295 407.18 349.647 409.326C345.999 411.472 346.384 411.73 343.563 410.744C340.742 409.758 211.389 404.468 211.389 404.468L197.291 446.272Z" fill="#1E2222"/>
<path d="M331.527 439.332L337.45 433.399L317.394 407.721L308.652 416.477L331.527 439.332Z" fill="#FFB6B6"/>
<path d="M325.531 437.21L334.429 427.167L338.489 431.223L353.707 428.428C354.459 428.29 355.235 428.396 355.922 428.73C356.609 429.064 357.172 429.61 357.527 430.286C357.883 430.963 358.013 431.736 357.898 432.492C357.783 433.247 357.43 433.947 356.89 434.488L345.623 445.771L339.666 443.704L342.923 448.475L338.675 452.73L325.531 437.21Z" fill="#1E2222"/>
<path d="M157.101 390.464L158.114 414.013C159.306 441.735 189.826 458.514 213.492 444.039C213.928 443.773 214.365 443.496 214.804 443.21C214.804 443.21 223.776 440.8 223.504 436.983C223.232 433.166 225.423 431.309 227.363 432.35C229.303 433.39 254.698 397.337 254.698 397.337C254.698 397.337 307.463 423.666 319.103 429.863L331.385 426.516C331.385 426.516 336.008 428.7 334.343 425.541C332.678 422.383 332.379 423.896 331.867 420.454C331.356 417.013 330.047 412.746 329.254 412.926C328.46 413.105 263.978 367.958 263.978 367.958C263.978 367.958 253.473 357.323 240.442 364.345C240.17 365.377 240.403 365.413 240.403 365.413L197.356 400.5L191.274 388.945L157.101 390.464Z" fill="#1E2222"/>
<path d="M186.033 303.938L167.577 295.285L162.051 304.903C162.051 304.903 147.211 326.087 146.996 341.37C146.781 356.652 149.414 361.197 149.414 361.197C149.414 361.197 143.016 365.982 146.215 368.907C149.414 371.832 156.497 373.094 151.057 374.362C145.617 375.63 146.996 388.468 153.071 390.747C159.146 393.026 191.773 393.006 191.773 393.006C191.48 392.011 191.459 390.955 191.711 389.948C191.963 388.942 192.48 388.021 193.209 387.282C195.738 384.746 198.016 386.566 195.738 382.618C193.46 378.669 189.663 380.948 192.7 375.63C195.738 370.313 195.737 368.724 195.737 368.724C195.737 368.724 201.929 356.935 192.602 344.146C192.033 343.366 192.511 343.336 192.511 343.336L184.98 318.089L186.033 303.938Z" fill="#08605F"/>
<path d="M156.29 267.556C156.446 271.456 153.989 276.981 152.779 280.313C151.486 283.875 157.092 288.603 160.681 289.638C160.867 288.404 161.483 287.275 162.418 286.45C162.16 287.626 162.137 288.842 162.352 290.027L192.689 296.935C198.146 290.613 203.634 281.524 202.437 270.563C202.723 268.481 202.389 266.361 201.476 264.469C200.562 262.577 199.11 260.997 197.303 259.928L181.966 250.865C175.443 249.379 167.228 248.482 162.516 252.52C160.411 254.393 158.757 256.719 157.679 259.324C156.6 261.928 156.125 264.742 156.29 267.556Z" fill="#1E2222"/>
<path d="M183.406 293.595C193.053 293.595 200.872 285.773 200.872 276.123C200.872 266.474 193.053 258.651 183.406 258.651C173.76 258.651 165.94 266.474 165.94 276.123C165.94 285.773 173.76 293.595 183.406 293.595Z" fill="#FFB6B6"/>
<path d="M162.944 266.789L162.101 270.492L176.837 273.848C176.85 273.099 177.017 272.361 177.329 271.68C177.641 270.999 178.09 270.389 178.649 269.89C178.331 271.342 178.367 272.85 178.754 274.285C186.701 278.745 193.864 280.326 200.286 279.188C201.156 279.386 202.069 279.231 202.825 278.755C203.58 278.28 204.116 277.524 204.314 276.653C206.898 265.299 200.128 253.693 188.833 250.875C186.087 250.188 183.232 250.057 180.435 250.488C177.638 250.92 174.955 251.905 172.544 253.388C170.133 254.87 168.042 256.819 166.393 259.12C164.745 261.421 163.572 264.028 162.944 266.789Z" fill="#1E2222"/>
<path d="M171.559 242.355C173.502 241.933 175.558 242.035 177.315 240.718L176.163 243.364C179.357 242.488 182.762 242.828 185.72 244.318C186.6 244.713 187.35 245.348 187.884 246.151C188.171 246.636 188.346 247.179 188.395 247.74C188.444 248.301 188.367 248.866 188.169 249.394C187.98 249.846 187.699 250.254 187.343 250.592C186.988 250.93 186.566 251.189 186.105 251.355C185.287 251.601 184.43 251.69 183.579 251.619C179.993 251.536 176.407 251.452 172.821 251.369C171.454 251.453 170.089 251.188 168.853 250.597C168.197 250.192 167.673 249.603 167.346 248.903C167.019 248.204 166.903 247.424 167.013 246.66C167.355 244.255 169.616 242.776 171.559 242.355Z" fill="#1E2222"/>
<path d="M266.306 379.289C266.264 379.239 266.216 379.195 266.163 379.157C266.033 379.006 265.874 378.881 265.695 378.791L264.417 378.107L255.932 368.683C255.441 368.427 254.869 368.373 254.339 368.531L254.317 368.537L250.682 369.662L247.556 370.632L243.189 371.986L213.446 381.199L193.896 387.254C193.367 387.421 192.925 387.79 192.666 388.28C192.406 388.77 192.349 389.342 192.506 389.873C192.598 390.166 192.75 390.436 192.953 390.667L193.575 391.359L194.88 392.814L197.903 399.081L198.742 400.018C199.009 400.316 199.356 400.531 199.741 400.64C200.127 400.748 200.535 400.744 200.918 400.628L265.327 382.712C265.661 382.604 265.964 382.415 266.209 382.162C266.453 381.909 266.631 381.6 266.728 381.261C266.825 380.923 266.837 380.566 266.763 380.222C266.69 379.878 266.533 379.558 266.306 379.289Z" fill="#CCCCCC"/>
<path d="M262.482 286.076L261.235 286.278C260.893 286.335 260.587 286.525 260.385 286.806L259.835 287.575L254.878 299.973C254.676 300.257 254.595 300.609 254.653 300.952L255.234 304.485L253.039 367.54C253.094 367.866 253.269 368.159 253.53 368.363L263.154 381.241L263.378 381.419L263.863 381.799C264.112 381.991 264.42 382.089 264.734 382.076L265.552 382.037C265.737 382.028 265.919 381.98 266.085 381.895C266.25 381.811 266.396 381.692 266.513 381.547C266.63 381.403 266.715 381.236 266.762 381.056C266.809 380.877 266.817 380.689 266.786 380.506L263.994 287.155C263.937 286.812 263.747 286.505 263.465 286.303C263.182 286.1 262.831 286.018 262.488 286.075L262.482 286.076Z" fill="#CCCCCC"/>
<path d="M260.394 290.975L256.003 304.355L254.304 357.799L261.139 363.876L260.394 290.975Z" fill="#08605F"/>
<path d="M226.438 372.498C225.05 371.849 223.464 371.768 222.017 372.271C220.57 372.774 219.377 373.823 218.69 375.193C218.555 375.473 218.444 375.765 218.357 376.064L197.876 377.288L194.841 387.902L222.715 383.191C223.983 383.456 225.303 383.294 226.469 382.729C227.635 382.165 228.581 381.231 229.16 380.072C229.813 378.733 229.908 377.191 229.423 375.783C228.939 374.375 227.915 373.217 226.578 372.564C226.532 372.541 226.485 372.519 226.438 372.498Z" fill="#FFB6B6"/>
<path d="M181.232 320.143C179.882 319.591 178.43 319.336 176.973 319.395C175.516 319.455 174.089 319.827 172.788 320.488C171.488 321.148 170.345 322.081 169.438 323.222C168.53 324.364 167.879 325.688 167.528 327.104L161.898 349.85L162.957 389.643C162.957 389.643 192.347 395.284 197.281 391.658C202.215 388.032 201.752 385.332 202.215 388.032C202.678 390.731 204.796 391.864 204.826 390.79C204.855 389.716 205.095 389.9 206.324 389.576C207.554 389.253 212.98 387.252 212.98 387.252L213.223 375.907C213.223 375.907 204.252 372.504 202.075 373.519C199.899 374.534 202.539 376.219 199.899 374.534C197.259 372.85 196.971 367.534 196.519 372.325C196.068 377.116 194.747 378.008 192.768 375.878C190.788 373.747 181.619 375.108 181.619 375.108L187.454 330.874C187.747 328.649 187.296 326.39 186.17 324.448C185.045 322.507 183.308 320.993 181.232 320.143Z" fill="#08605F"/>
<path d="M3.99978e-06 452.096C-0.000349934 452.215 0.0227888 452.333 0.0680809 452.442C0.113373 452.552 0.179932 452.652 0.263922 452.736C0.347913 452.82 0.447676 452.887 0.557481 452.932C0.667287 452.977 0.784963 453 0.90374 453H544.096C544.336 453 544.566 452.905 544.735 452.735C544.905 452.566 545 452.336 545 452.096C545 451.856 544.905 451.626 544.735 451.457C544.566 451.287 544.336 451.192 544.096 451.192H0.903694C0.784922 451.192 0.667256 451.215 0.557458 451.26C0.44766 451.305 0.347896 451.372 0.263911 451.456C0.179926 451.54 0.113372 451.64 0.0680809 451.75C0.0227902 451.859 -0.000345873 451.977 3.99978e-06 452.096Z" fill="#CCCCCC"/>
<path d="M479.323 256.471H325.423C322.927 256.468 320.534 255.475 318.768 253.709C317.003 251.943 316.01 249.549 316.007 247.052V226.304C316.01 223.807 317.003 221.412 318.768 219.647C320.534 217.881 322.927 216.888 325.423 216.885H479.323C481.819 216.888 484.212 217.881 485.978 219.647C487.743 221.412 488.736 223.807 488.739 226.304V247.052C488.736 249.549 487.743 251.943 485.978 253.709C484.212 255.475 481.819 256.468 479.323 256.471Z" fill="#DEEEEE"/>
<path d="M421.071 233.127H375.725C375.187 233.127 374.671 232.913 374.291 232.532C373.911 232.152 373.697 231.636 373.697 231.098C373.697 230.559 373.911 230.043 374.291 229.663C374.671 229.282 375.187 229.069 375.725 229.069H421.071C421.609 229.069 422.124 229.282 422.505 229.663C422.885 230.043 423.099 230.559 423.099 231.098C423.099 231.636 422.885 232.152 422.505 232.532C422.124 232.913 421.609 233.127 421.071 233.127Z" fill="white"/>
<path d="M464.683 244.287H375.218C374.68 244.287 374.164 244.073 373.784 243.693C373.403 243.312 373.19 242.796 373.19 242.258C373.19 241.72 373.403 241.204 373.784 240.823C374.164 240.443 374.68 240.229 375.218 240.229H464.683C465.221 240.229 465.737 240.443 466.117 240.823C466.498 241.204 466.712 241.72 466.712 242.258C466.712 242.796 466.498 243.312 466.117 243.693C465.737 244.073 465.221 244.287 464.683 244.287Z" fill="white"/>
<path d="M351.635 250.283C359.146 250.283 365.235 244.192 365.235 236.678C365.235 229.164 359.146 223.073 351.635 223.073C344.124 223.073 338.035 229.164 338.035 236.678C338.035 244.192 344.124 250.283 351.635 250.283Z" fill="white"/>
<path d="M429.962 309.646H276.062C273.566 309.643 271.173 308.65 269.407 306.884C267.642 305.118 266.649 302.724 266.646 300.227V279.479C266.649 276.982 267.642 274.588 269.407 272.822C271.173 271.056 273.566 270.063 276.062 270.06H429.962C432.458 270.063 434.851 271.056 436.617 272.822C438.382 274.588 439.375 276.982 439.378 279.479V300.227C439.375 302.724 438.382 305.118 436.617 306.884C434.851 308.65 432.458 309.643 429.962 309.646Z" fill="#DEEEEE"/>
<path d="M371.709 286.302H326.364C325.826 286.302 325.31 286.088 324.93 285.708C324.549 285.327 324.336 284.811 324.336 284.273C324.336 283.735 324.549 283.219 324.93 282.838C325.31 282.458 325.826 282.244 326.364 282.244H371.709C372.247 282.244 372.763 282.458 373.144 282.838C373.524 283.219 373.738 283.735 373.738 284.273C373.738 284.811 373.524 285.327 373.144 285.708C372.763 286.088 372.247 286.302 371.709 286.302Z" fill="white"/>
<path d="M415.322 297.462H325.857C325.319 297.462 324.803 297.249 324.423 296.868C324.042 296.488 323.829 295.971 323.829 295.433C323.829 294.895 324.042 294.379 324.423 293.998C324.803 293.618 325.319 293.404 325.857 293.404H415.322C415.86 293.404 416.376 293.618 416.756 293.998C417.137 294.379 417.35 294.895 417.35 295.433C417.35 295.971 417.137 296.488 416.756 296.868C416.376 297.249 415.86 297.462 415.322 297.462Z" fill="white"/>
<path d="M302.274 303.458C309.785 303.458 315.874 297.367 315.874 289.853C315.874 282.339 309.785 276.248 302.274 276.248C294.763 276.248 288.673 282.339 288.673 289.853C288.673 297.367 294.763 303.458 302.274 303.458Z" fill="white"/>
</g>
<defs>
<clipPath id="clip0_142_133">
<rect width="545" height="453" fill="white"/>
</clipPath>
</defs>
</svg>
