<svg width="108" height="54" viewBox="0 0 108 54" fill="none" xmlns="http://www.w3.org/2000/svg">
<path fill-rule="evenodd" clip-rule="evenodd" d="M34 47H18V0C26.8366 0 34 7.16344 34 16V47ZM-3.8147e-05 30.9526V16C8.86269 16 16.0474 23.1847 16.0474 32.0474V47C7.18463 47 -3.8147e-05 39.8153 -3.8147e-05 30.9526Z" fill="url(#paint0_linear_148_195)"/>
<path d="M44.2841 47V29.5455H47.6818V47H44.2841ZM46 26.8523C45.4091 26.8523 44.9015 26.6553 44.4773 26.2614C44.0606 25.8598 43.8523 25.3826 43.8523 24.8295C43.8523 24.2689 44.0606 23.7917 44.4773 23.3977C44.9015 22.9962 45.4091 22.7955 46 22.7955C46.5909 22.7955 47.0947 22.9962 47.5114 23.3977C47.9356 23.7917 48.1477 24.2689 48.1477 24.8295C48.1477 25.3826 47.9356 25.8598 47.5114 26.2614C47.0947 26.6553 46.5909 26.8523 46 26.8523ZM57.3324 47.3864C56.2263 47.3864 55.2263 47.1818 54.3324 46.7727C53.4384 46.3561 52.7301 45.7538 52.2074 44.9659C51.6922 44.178 51.4347 43.2121 51.4347 42.0682C51.4347 41.0833 51.6241 40.2727 52.0028 39.6364C52.3816 39 52.893 38.4962 53.5369 38.125C54.1809 37.7538 54.9006 37.4735 55.696 37.2841C56.4915 37.0947 57.3021 36.9508 58.1278 36.8523C59.1733 36.7311 60.0218 36.6326 60.6733 36.5568C61.3248 36.4735 61.7983 36.3409 62.0938 36.1591C62.3892 35.9773 62.5369 35.6818 62.5369 35.2727V35.1932C62.5369 34.2008 62.2566 33.4318 61.696 32.8864C61.143 32.3409 60.3172 32.0682 59.2188 32.0682C58.0748 32.0682 57.1733 32.322 56.5142 32.8295C55.8627 33.3295 55.4119 33.8864 55.1619 34.5L51.9688 33.7727C52.3475 32.7121 52.9006 31.8561 53.6278 31.2045C54.3627 30.5455 55.2074 30.0682 56.1619 29.7727C57.1165 29.4697 58.1203 29.3182 59.1733 29.3182C59.8703 29.3182 60.6089 29.4015 61.3892 29.5682C62.1771 29.7273 62.9119 30.0227 63.5938 30.4545C64.2831 30.8864 64.8475 31.5038 65.2869 32.3068C65.7263 33.1023 65.946 34.1364 65.946 35.4091V47H62.6278V44.6136H62.4915C62.2718 45.053 61.9422 45.4848 61.5028 45.9091C61.0634 46.3333 60.4991 46.6856 59.8097 46.9659C59.1203 47.2462 58.2945 47.3864 57.3324 47.3864ZM58.071 44.6591C59.0104 44.6591 59.8134 44.4735 60.4801 44.1023C61.1544 43.7311 61.6657 43.2462 62.0142 42.6477C62.3703 42.0417 62.5483 41.3939 62.5483 40.7045V38.4545C62.4271 38.5758 62.1922 38.6894 61.8438 38.7955C61.5028 38.8939 61.1127 38.9811 60.6733 39.0568C60.2339 39.125 59.8059 39.1894 59.3892 39.25C58.9725 39.303 58.6241 39.3485 58.3438 39.3864C57.6847 39.4697 57.0824 39.6098 56.5369 39.8068C55.9991 40.0038 55.5672 40.2879 55.2415 40.6591C54.9233 41.0227 54.7642 41.5076 54.7642 42.1136C54.7642 42.9545 55.0748 43.5909 55.696 44.0227C56.3172 44.447 57.1089 44.6591 58.071 44.6591ZM77.7898 53.9091C76.4034 53.9091 75.2102 53.7273 74.2102 53.3636C73.2178 53 72.4072 52.5189 71.7784 51.9205C71.1496 51.322 70.6799 50.6667 70.3693 49.9545L73.2898 48.75C73.4943 49.0833 73.767 49.4356 74.108 49.8068C74.4564 50.1856 74.9261 50.5076 75.517 50.7727C76.1155 51.0379 76.8845 51.1705 77.8239 51.1705C79.1117 51.1705 80.1761 50.8561 81.017 50.2273C81.858 49.6061 82.2784 48.6136 82.2784 47.25V43.8182H82.0625C81.858 44.1894 81.5625 44.6023 81.1761 45.0568C80.7973 45.5114 80.2746 45.9053 79.608 46.2386C78.9413 46.572 78.0739 46.7386 77.0057 46.7386C75.6269 46.7386 74.3845 46.4167 73.2784 45.7727C72.1799 45.1212 71.3087 44.1629 70.6648 42.8977C70.0284 41.625 69.7102 40.0606 69.7102 38.2045C69.7102 36.3485 70.0246 34.7576 70.6534 33.4318C71.2898 32.1061 72.161 31.0909 73.267 30.3864C74.3731 29.6742 75.6269 29.3182 77.0284 29.3182C78.1117 29.3182 78.9867 29.5 79.6534 29.8636C80.3201 30.2197 80.839 30.6364 81.2102 31.1136C81.589 31.5909 81.8807 32.0114 82.0852 32.375H82.3352V29.5455H85.6648V47.3864C85.6648 48.8864 85.3163 50.1174 84.6193 51.0795C83.9223 52.0417 82.9792 52.7538 81.7898 53.2159C80.608 53.678 79.2746 53.9091 77.7898 53.9091ZM77.7557 43.9205C78.733 43.9205 79.5587 43.6932 80.233 43.2386C80.9148 42.7765 81.4299 42.1174 81.7784 41.2614C82.1345 40.3977 82.3125 39.3636 82.3125 38.1591C82.3125 36.9848 82.1383 35.9508 81.7898 35.0568C81.4413 34.1629 80.9299 33.4659 80.2557 32.9659C79.5814 32.4583 78.7481 32.2045 77.7557 32.2045C76.733 32.2045 75.8807 32.4697 75.1989 33C74.517 33.5227 74.0019 34.2348 73.6534 35.1364C73.3125 36.0379 73.142 37.0455 73.142 38.1591C73.142 39.303 73.3163 40.3068 73.6648 41.1705C74.0133 42.0341 74.5284 42.7083 75.2102 43.1932C75.8996 43.678 76.7481 43.9205 77.7557 43.9205ZM97.5739 47.3523C95.9375 47.3523 94.5095 46.9773 93.2898 46.2273C92.0701 45.4773 91.1231 44.428 90.4489 43.0795C89.7746 41.7311 89.4375 40.1553 89.4375 38.3523C89.4375 36.5417 89.7746 34.9583 90.4489 33.6023C91.1231 32.2462 92.0701 31.1932 93.2898 30.4432C94.5095 29.6932 95.9375 29.3182 97.5739 29.3182C99.2102 29.3182 100.638 29.6932 101.858 30.4432C103.078 31.1932 104.025 32.2462 104.699 33.6023C105.373 34.9583 105.71 36.5417 105.71 38.3523C105.71 40.1553 105.373 41.7311 104.699 43.0795C104.025 44.428 103.078 45.4773 101.858 46.2273C100.638 46.9773 99.2102 47.3523 97.5739 47.3523ZM97.5852 44.5C98.6458 44.5 99.5246 44.2197 100.222 43.6591C100.919 43.0985 101.434 42.3523 101.767 41.4205C102.108 40.4886 102.278 39.4621 102.278 38.3409C102.278 37.2273 102.108 36.2045 101.767 35.2727C101.434 34.3333 100.919 33.5795 100.222 33.0114C99.5246 32.4432 98.6458 32.1591 97.5852 32.1591C96.517 32.1591 95.6307 32.4432 94.9261 33.0114C94.2292 33.5795 93.7102 34.3333 93.3693 35.2727C93.036 36.2045 92.8693 37.2273 92.8693 38.3409C92.8693 39.4621 93.036 40.4886 93.3693 41.4205C93.7102 42.3523 94.2292 43.0985 94.9261 43.6591C95.6307 44.2197 96.517 44.5 97.5852 44.5Z" fill="#08605F"/>
<rect x="56.0298" y="33.6407" width="2.91864" height="4.19461" transform="rotate(135 56.0298 33.6407)" fill="white"/>
<rect x="71.9661" y="47" width="2.91864" height="4.19461" transform="rotate(45 71.9661 47)" fill="white"/>
<rect x="40" y="21" width="13" height="6" fill="white"/>
<path d="M53 21L50 21C46.6863 21 44 23.6863 44 27L47 27C50.3137 27 53 24.3137 53 21Z" fill="#08605F"/>
<defs>
<linearGradient id="paint0_linear_148_195" x1="17" y1="0" x2="17" y2="47" gradientUnits="userSpaceOnUse">
<stop stop-color="#37B4B2"/>
<stop offset="1" stop-color="#08605F"/>
</linearGradient>
</defs>
</svg>
